# File created by Blade
# Date/Time:  Wed Apr 08 14:10:35 2015
# Frame Rate: 120.000 fps
#------------------------------------------------------
:FULLY-SPECIFIED
:DEGREES
333
root 0.348541 30.924535 -5.929870 23.214578 6.026153 -2.562417
Spine -2.987091 -8.491391 3.106189
Head -11.812990 -2.343220 2.354881
LeftShoulder -10.824078 43.331977 15.917267
LeftArm 61.456707 21.370254 -53.858936
LeftForeArm 4.452408 -0.000000 16.301933
LeftHand 11.313737 -0.000000 -0.523875
LeftHandThumb1 -26.253704 0.000000 33.147579
RightShoulder -0.694071 -4.532893 -19.686986
RightArm 17.877314 -34.542049 77.021182
RightForeArm -24.355057 -0.000000 29.093097
RightHand 9.590609 -0.000000 -2.595511
RightHandThumb1 -24.326973 -0.000000 -32.862282
LeftUpLeg -7.609320 -8.787650 1.585655
LeftLeg 23.776658 -0.000000 -0.000000
LeftFoot -19.666406 13.416820 -16.966930
LeftToeBase -27.283372 -0.000000 0.000000
RightUpLeg -52.917931 -0.624936 4.686918
RightLeg 33.618021 -0.000000 -0.000000
RightFoot -2.807366 -8.251161 5.367588
RightToeBase -11.103423 -0.000000 0.000000
334
root 0.315786 30.959547 -5.678149 23.396367 5.763758 -2.687467
Spine -2.961106 -8.216603 3.202852
Head -11.967407 -2.265256 2.122937
LeftShoulder -11.292719 43.952995 15.546751
LeftArm 60.442908 20.781827 -53.512982
LeftForeArm 4.832723 -0.000000 15.754332
LeftHand 11.333327 -0.000000 -0.134540
LeftHandThumb1 -26.253704 0.000000 33.147579
RightShoulder -0.825831 -4.928843 -20.165844
RightArm 17.270091 -34.766327 76.624795
RightForeArm -24.243386 -0.000000 28.821560
RightHand 9.795662 -0.000000 -3.011527
RightHandThumb1 -24.326973 -0.000000 -32.862282
LeftUpLeg -8.286924 -8.301197 1.624586
LeftLeg 25.534533 -0.000000 -0.000000
LeftFoot -18.517626 13.726106 -16.598894
LeftToeBase -28.438227 -0.000000 0.000000
RightUpLeg -52.740069 -0.367029 4.933146
RightLeg 33.791374 -0.000000 -0.000000
RightFoot -3.112718 -8.484344 4.884588
RightToeBase -11.265588 -0.000000 0.000000
335
root 0.282481 31.008104 -5.429087 23.545505 5.528912 -2.828829
Spine -2.887886 -8.023297 3.311609
Head -12.139691 -2.137305 1.936292
LeftShoulder -11.857779 44.619298 15.111251
LeftArm 59.345310 20.138405 -53.283693
LeftForeArm 5.318109 -0.000000 15.066840
LeftHand 11.382455 -0.000000 -0.100169
LeftHandThumb1 -26.253704 0.000000 33.147579
RightShoulder -0.944043 -5.355169 -20.617345
RightArm 16.640661 -35.015649 76.140742
RightForeArm -23.792355 -0.000000 28.524225
RightHand 9.620532 -0.000000 -2.924120
RightHandThumb1 -24.326973 -0.000000 -32.862282
LeftUpLeg -9.073721 -7.697117 1.684094
LeftLeg 27.494171 -0.000000 -0.000000
LeftFoot -17.194691 13.989947 -16.097679
LeftToeBase -29.237620 -0.000000 0.000000
RightUpLeg -52.484546 -0.088180 5.145266
RightLeg 33.866679 -0.000000 -0.000000
RightFoot -3.283882 -8.678255 4.505151
RightToeBase -11.541748 -0.000000 0.000000
336
root 0.251369 31.069320 -5.183417 23.624128 5.312553 -2.949246
Spine -2.723759 -7.894660 3.393694
Head -12.290726 -2.026773 1.760365
LeftShoulder -12.454855 45.278077 14.640214
LeftArm 58.123988 19.464478 -53.132243
LeftForeArm 5.867925 -0.000000 14.307943
LeftHand 11.161454 -0.000000 0.306006
LeftHandThumb1 -26.253704 0.000000 33.147579
RightShoulder -0.980340 -5.736812 -21.123952
RightArm 15.791526 -34.650353 76.125490
RightForeArm -23.736773 -0.000000 27.819282
RightHand 9.824948 -0.000000 -2.557034
RightHandThumb1 -24.326973 -0.000000 -32.862282
LeftUpLeg -9.899173 -7.062931 1.716238
LeftLeg 29.575652 -0.000000 -0.000000
LeftFoot -15.654499 14.291568 -15.502563
LeftToeBase -30.101656 -0.000000 0.000000
RightUpLeg -52.091430 0.217655 5.266307
RightLeg 33.802257 -0.000000 -0.000000
RightFoot -3.378769 -8.842706 4.223270
RightToeBase -11.835722 -0.000000 0.000000
337
root 0.220608 31.142335 -4.941087 23.676386 5.151771 -3.062658
Spine -2.527289 -7.799488 3.476371
Head -12.413682 -1.971697 1.593875
LeftShoulder -13.075025 45.941962 14.174099
LeftArm 56.934437 18.870861 -52.832926
LeftForeArm 6.004309 -0.000000 13.420662
LeftHand 11.004063 -0.000000 0.307937
LeftHandThumb1 -26.253704 0.000000 33.147579
RightShoulder -1.039991 -6.213927 -21.594087
RightArm 14.945334 -34.265355 75.993855
RightForeArm -23.641710 -0.000000 27.076325
RightHand 9.894192 -0.000000 -1.700028
RightHandThumb1 -24.326973 -0.000000 -32.862282
LeftUpLeg -10.821330 -6.438743 1.760972
LeftLeg 31.781065 -0.000000 -0.000000
LeftFoot -14.007397 14.556783 -14.907895
LeftToeBase -30.320844 -0.000000 0.000000
RightUpLeg -51.595756 0.510650 5.360524
RightLeg 33.583362 -0.000000 -0.000000
RightFoot -3.400104 -9.008405 3.976102
RightToeBase -12.267415 -0.000000 0.000000
338
root 0.195772 31.227410 -4.701632 23.695518 5.013606 -3.152659
Spine -2.299813 -7.711331 3.534614
Head -12.490843 -1.878685 1.442041
LeftShoulder -13.598363 46.588089 13.800565
LeftArm 55.635405 18.354221 -52.577931
LeftForeArm 6.198856 -0.000000 12.497104
LeftHand 10.785599 -0.000000 0.270676
LeftHandThumb1 -26.253704 0.000000 33.147579
RightShoulder -1.128319 -6.681177 -21.989318
RightArm 14.010823 -34.116537 75.723184
RightForeArm -23.274874 -0.000000 26.313090
RightHand 9.560133 -0.000000 -1.125427
RightHandThumb1 -24.326973 -0.000000 -32.862282
LeftUpLeg -11.800329 -5.884171 1.781577
LeftLeg 34.073192 -0.000000 -0.000000
LeftFoot -12.520634 14.759695 -14.672853
LeftToeBase -29.361054 -0.000000 0.000000
RightUpLeg -50.993031 0.817598 5.353346
RightLeg 33.234221 -0.000000 -0.000000
RightFoot -3.381982 -9.048228 3.967734
RightToeBase -12.628862 -0.000000 0.000000
339
root 0.156635 31.326167 -4.481786 23.748847 5.110900 -3.251113
Spine -2.073731 -7.805861 3.660559
Head -12.599355 -1.862385 1.374080
LeftShoulder -14.082201 47.152245 13.499488
LeftArm 54.277766 17.933305 -52.241015
LeftForeArm 6.475826 -0.000000 11.590302
LeftHand 10.406879 -0.000000 -0.036133
LeftHandThumb1 -26.253704 0.000000 33.147579
RightShoulder -1.219035 -7.191511 -22.373056
RightArm 13.082084 -34.046323 75.421572
RightForeArm -22.761881 -0.000000 25.449624
RightHand 9.439363 -0.000000 0.202499
RightHandThumb1 -24.326973 -0.000000 -32.862282
LeftUpLeg -13.006011 -5.412317 1.948067
LeftLeg 36.497107 -0.000000 -0.000000
LeftFoot -11.046766 14.801618 -14.310541
LeftToeBase -28.083632 -0.000000 0.000000
RightUpLeg -50.353020 1.021423 5.436472
RightLeg 32.646517 -0.000000 -0.000000
RightFoot -3.129340 -9.378213 3.673279
RightToeBase -13.296419 -0.000000 0.000000
340
root 0.112796 31.435398 -4.265089 23.805299 5.311244 -3.397466
Spine -1.863975 -7.934839 3.863281
Head -12.664553 -1.896503 1.322848
LeftShoulder -14.613099 47.801284 13.174749
LeftArm 53.017103 17.573556 -51.793381
LeftForeArm 6.709503 -0.000000 10.629513
LeftHand 10.175221 -0.000000 -0.555654
LeftHandThumb1 -26.253704 0.000000 33.147579
RightShoulder -1.334838 -7.798635 -22.722479
RightArm 12.173403 -34.036219 75.059442
RightForeArm -22.546941 -0.000000 24.509851
RightHand 8.998174 -0.000000 0.771398
RightHandThumb1 -24.326973 -0.000000 -32.862282
LeftUpLeg -14.304407 -4.986529 2.199995
LeftLeg 38.918892 -0.000000 -0.000000
LeftFoot -9.609377 14.924675 -13.869748
LeftToeBase -26.359898 -0.000000 0.000000
RightUpLeg -49.639655 1.201437 5.619114
RightLeg 31.868094 -0.000000 -0.000000
RightFoot -2.793865 -9.877749 3.329258
RightToeBase -13.824628 -0.000000 0.000000
341
root 0.096976 31.552170 -4.041681 23.754936 5.484794 -3.331926
Spine -1.537263 -8.102868 3.856621
Head -12.724684 -1.941307 1.262248
LeftShoulder -15.119719 48.409380 12.856204
LeftArm 51.640199 17.210641 -51.474684
LeftForeArm 7.080771 -0.000000 9.708195
LeftHand 9.750315 -0.000000 -1.521964
LeftHandThumb1 -26.253704 0.000000 33.147579
RightShoulder -1.456639 -8.436098 -23.030227
RightArm 11.168259 -34.118958 74.686628
RightForeArm -22.212718 -0.000000 23.491736
RightHand 8.857055 -0.000000 1.409997
RightHandThumb1 -24.326973 -0.000000 -32.862282
LeftUpLeg -15.443585 -4.685916 2.161378
LeftLeg 41.110082 -0.000000 -0.000000
LeftFoot -8.025525 15.264287 -12.986684
LeftToeBase -24.524424 -0.000000 0.000000
RightUpLeg -48.786836 1.185056 5.590389
RightLeg 31.089856 -0.000000 -0.000000
RightFoot -2.503026 -10.103199 3.109265
RightToeBase -14.360541 -0.000000 0.000000
